<svg width="88" height="88" viewBox="0 0 88 88" fill="none" xmlns="http://www.w3.org/2000/svg">
<circle cx="44" cy="44" r="42.5" stroke="white" stroke-width="3"/>
<path d="M64.324 31.5753C62.7718 29.7461 59.9061 29 54.4331 29H34.5664C28.9683 29 26.054 29.7943 24.5076 31.7417C23 33.6404 23 36.4381 23 40.3101V47.6901C23 55.1914 24.7888 59 34.5664 59H54.4333C59.1794 59 61.8093 58.3416 63.5107 56.7274C65.2555 55.072 66 52.3693 66 47.6901V40.3101C66 36.2267 65.8833 33.4126 64.324 31.5753ZM50.6061 45.0189L41.5847 49.693C41.3831 49.7976 41.1625 49.8494 40.9422 49.8494C40.6928 49.8494 40.444 49.7828 40.2236 49.6506C39.8086 49.4013 39.5551 48.9553 39.5551 48.4743V39.1561C39.5551 38.6759 39.8079 38.2304 40.2221 37.9809C40.6364 37.7315 41.1517 37.7144 41.5815 37.9358L50.6029 42.5798C51.0619 42.816 51.3502 43.2858 51.3509 43.7983C51.3514 44.3112 51.0644 44.7816 50.6061 45.0189Z" fill="#B38325"/>
</svg>
