<svg width="88" height="88" viewBox="0 0 88 88" fill="none" xmlns="http://www.w3.org/2000/svg">
<circle cx="44" cy="44" r="42.5" stroke="white" stroke-width="3"/>
<path d="M44 30C34.447 30 25.7838 34.9101 19.3912 42.8854C18.8696 43.5388 18.8696 44.4516 19.3912 45.105C25.7838 53.0899 34.447 58 44 58C53.553 58 62.2162 53.0899 68.6088 45.1146C69.1304 44.4612 69.1304 43.5484 68.6088 42.895C62.2162 34.9101 53.553 30 44 30ZM44.6853 53.8586C38.3439 54.2334 33.1071 49.3233 33.506 43.3562C33.8333 38.4365 38.0779 34.4489 43.3147 34.1414C49.6561 33.7666 54.8929 38.6767 54.494 44.6438C54.1565 49.5539 49.9118 53.5415 44.6853 53.8586ZM44.3682 49.304C40.952 49.5058 38.1291 46.8634 38.3541 43.6541C38.528 41.0021 40.8191 38.8593 43.642 38.6863C47.0582 38.4846 49.8812 41.127 49.6561 44.3363C49.472 46.9979 47.1809 49.1407 44.3682 49.304Z" fill="#B38325"/>
</svg>
